<mxfile host="drawio-plugin" modified="2023-11-04T00:46:17.110Z" agent="5.0 (Windows NT 6.2; Win64; x64) AppleWebKit/537.36 (KHTML, like Gecko) Chrome/104.0.5112.102 Safari/537.36" etag="z3ptqhTUw-NDRo4p_Owh" version="20.5.3" type="embed"><diagram name="Página-1" id="8OY9bf6ID131a-0vT7qg"><mxGraphModel dx="1584" dy="475" grid="1" gridSize="10" guides="1" tooltips="1" connect="1" arrows="1" fold="1" page="1" pageScale="1" pageWidth="827" pageHeight="1169" math="0" shadow="0"><root><mxCell id="0"/><mxCell id="1" parent="0"/><mxCell id="bIfid9KBODgOwhYmWyW7-12" style="edgeStyle=orthogonalEdgeStyle;rounded=0;orthogonalLoop=1;jettySize=auto;html=1;exitX=1;exitY=0.5;exitDx=0;exitDy=0;entryX=0;entryY=0.5;entryDx=0;entryDy=0;" parent="1" source="bIfid9KBODgOwhYmWyW7-3" target="bIfid9KBODgOwhYmWyW7-11" edge="1"><mxGeometry relative="1" as="geometry"/></mxCell><mxCell id="bIfid9KBODgOwhYmWyW7-3" value="Redirect to create company" style="rounded=0;whiteSpace=wrap;html=1;" parent="1" vertex="1"><mxGeometry x="420" y="130" width="120" height="60" as="geometry"/></mxCell><mxCell id="bIfid9KBODgOwhYmWyW7-8" style="edgeStyle=orthogonalEdgeStyle;rounded=0;orthogonalLoop=1;jettySize=auto;html=1;entryX=0;entryY=0.5;entryDx=0;entryDy=0;" parent="1" source="bIfid9KBODgOwhYmWyW7-5" target="bIfid9KBODgOwhYmWyW7-6" edge="1"><mxGeometry relative="1" as="geometry"/></mxCell><mxCell id="bIfid9KBODgOwhYmWyW7-5" value="Register User / Signin" style="rounded=0;whiteSpace=wrap;html=1;" parent="1" vertex="1"><mxGeometry x="-220" y="190" width="120" height="60" as="geometry"/></mxCell><mxCell id="bIfid9KBODgOwhYmWyW7-32" style="edgeStyle=orthogonalEdgeStyle;rounded=0;orthogonalLoop=1;jettySize=auto;html=1;exitX=0.5;exitY=1;exitDx=0;exitDy=0;entryX=0.5;entryY=1;entryDx=0;entryDy=0;" parent="1" source="bIfid9KBODgOwhYmWyW7-6" target="bIfid9KBODgOwhYmWyW7-16" edge="1"><mxGeometry relative="1" as="geometry"><Array as="points"><mxPoint x="10" y="370"/><mxPoint x="860" y="370"/></Array></mxGeometry></mxCell><mxCell id="bIfid9KBODgOwhYmWyW7-47" value="no" style="edgeLabel;html=1;align=center;verticalAlign=middle;resizable=0;points=[];" parent="bIfid9KBODgOwhYmWyW7-32" vertex="1" connectable="0"><mxGeometry x="-0.9578" y="1" relative="1" as="geometry"><mxPoint as="offset"/></mxGeometry></mxCell><mxCell id="bIfid9KBODgOwhYmWyW7-44" value="yes" style="edgeStyle=orthogonalEdgeStyle;rounded=0;orthogonalLoop=1;jettySize=auto;html=1;exitX=1;exitY=0.5;exitDx=0;exitDy=0;entryX=0;entryY=0.5;entryDx=0;entryDy=0;" parent="1" source="bIfid9KBODgOwhYmWyW7-6" target="bIfid9KBODgOwhYmWyW7-43" edge="1"><mxGeometry relative="1" as="geometry"/></mxCell><mxCell id="bIfid9KBODgOwhYmWyW7-6" value="Pay Premium?" style="rhombus;whiteSpace=wrap;html=1;" parent="1" vertex="1"><mxGeometry x="-30" y="180" width="80" height="80" as="geometry"/></mxCell><mxCell id="bIfid9KBODgOwhYmWyW7-14" style="edgeStyle=orthogonalEdgeStyle;rounded=0;orthogonalLoop=1;jettySize=auto;html=1;exitX=0.5;exitY=1;exitDx=0;exitDy=0;entryX=0.5;entryY=0;entryDx=0;entryDy=0;" parent="1" source="bIfid9KBODgOwhYmWyW7-11" target="bIfid9KBODgOwhYmWyW7-13" edge="1"><mxGeometry relative="1" as="geometry"/></mxCell><mxCell id="bIfid9KBODgOwhYmWyW7-51" value="no" style="edgeLabel;html=1;align=center;verticalAlign=middle;resizable=0;points=[];" parent="bIfid9KBODgOwhYmWyW7-14" vertex="1" connectable="0"><mxGeometry x="-0.2563" relative="1" as="geometry"><mxPoint as="offset"/></mxGeometry></mxCell><mxCell id="bIfid9KBODgOwhYmWyW7-17" style="edgeStyle=orthogonalEdgeStyle;rounded=0;orthogonalLoop=1;jettySize=auto;html=1;exitX=1;exitY=0.5;exitDx=0;exitDy=0;entryX=0;entryY=0.5;entryDx=0;entryDy=0;" parent="1" source="bIfid9KBODgOwhYmWyW7-11" target="bIfid9KBODgOwhYmWyW7-16" edge="1"><mxGeometry relative="1" as="geometry"/></mxCell><mxCell id="bIfid9KBODgOwhYmWyW7-50" value="yes" style="edgeLabel;html=1;align=center;verticalAlign=middle;resizable=0;points=[];" parent="bIfid9KBODgOwhYmWyW7-17" vertex="1" connectable="0"><mxGeometry x="-0.1433" relative="1" as="geometry"><mxPoint as="offset"/></mxGeometry></mxCell><mxCell id="bIfid9KBODgOwhYmWyW7-11" value="No repeated company name or email?" style="rhombus;whiteSpace=wrap;html=1;" parent="1" vertex="1"><mxGeometry x="610" y="110" width="110" height="100" as="geometry"/></mxCell><mxCell id="bIfid9KBODgOwhYmWyW7-15" style="edgeStyle=orthogonalEdgeStyle;rounded=0;orthogonalLoop=1;jettySize=auto;html=1;exitX=0;exitY=0.5;exitDx=0;exitDy=0;entryX=0.5;entryY=1;entryDx=0;entryDy=0;" parent="1" source="bIfid9KBODgOwhYmWyW7-13" target="bIfid9KBODgOwhYmWyW7-3" edge="1"><mxGeometry relative="1" as="geometry"/></mxCell><mxCell id="bIfid9KBODgOwhYmWyW7-13" value="Error already exists" style="rounded=1;whiteSpace=wrap;html=1;" parent="1" vertex="1"><mxGeometry x="605" y="270" width="120" height="60" as="geometry"/></mxCell><mxCell id="bIfid9KBODgOwhYmWyW7-24" style="edgeStyle=orthogonalEdgeStyle;rounded=0;orthogonalLoop=1;jettySize=auto;html=1;exitX=1;exitY=0.5;exitDx=0;exitDy=0;entryX=0;entryY=0.5;entryDx=0;entryDy=0;" parent="1" source="bIfid9KBODgOwhYmWyW7-16" target="bIfid9KBODgOwhYmWyW7-23" edge="1"><mxGeometry relative="1" as="geometry"/></mxCell><mxCell id="bIfid9KBODgOwhYmWyW7-16" value="Redirect to&amp;nbsp; dashboard view" style="rounded=0;whiteSpace=wrap;html=1;" parent="1" vertex="1"><mxGeometry x="800" y="130" width="120" height="60" as="geometry"/></mxCell><mxCell id="bIfid9KBODgOwhYmWyW7-18" value="Premium User" style="swimlane;fontStyle=0;childLayout=stackLayout;horizontal=1;startSize=30;horizontalStack=0;resizeParent=1;resizeParentMax=0;resizeLast=0;collapsible=1;marginBottom=0;whiteSpace=wrap;html=1;" parent="1" vertex="1"><mxGeometry x="1190" y="100" width="160" height="120" as="geometry"/></mxCell><mxCell id="bIfid9KBODgOwhYmWyW7-19" value="Add users to company by email" style="text;strokeColor=none;fillColor=none;align=left;verticalAlign=middle;spacingLeft=4;spacingRight=4;overflow=hidden;points=[[0,0.5],[1,0.5]];portConstraint=eastwest;rotatable=0;whiteSpace=wrap;html=1;" parent="bIfid9KBODgOwhYmWyW7-18" vertex="1"><mxGeometry y="30" width="160" height="30" as="geometry"/></mxCell><mxCell id="bIfid9KBODgOwhYmWyW7-20" value="Create dashboards" style="text;strokeColor=none;fillColor=none;align=left;verticalAlign=middle;spacingLeft=4;spacingRight=4;overflow=hidden;points=[[0,0.5],[1,0.5]];portConstraint=eastwest;rotatable=0;whiteSpace=wrap;html=1;" parent="bIfid9KBODgOwhYmWyW7-18" vertex="1"><mxGeometry y="60" width="160" height="30" as="geometry"/></mxCell><mxCell id="bIfid9KBODgOwhYmWyW7-21" value="Register topics to dashboards" style="text;strokeColor=none;fillColor=none;align=left;verticalAlign=middle;spacingLeft=4;spacingRight=4;overflow=hidden;points=[[0,0.5],[1,0.5]];portConstraint=eastwest;rotatable=0;whiteSpace=wrap;html=1;" parent="bIfid9KBODgOwhYmWyW7-18" vertex="1"><mxGeometry y="90" width="160" height="30" as="geometry"/></mxCell><mxCell id="bIfid9KBODgOwhYmWyW7-25" style="edgeStyle=orthogonalEdgeStyle;rounded=0;orthogonalLoop=1;jettySize=auto;html=1;exitX=1;exitY=0.5;exitDx=0;exitDy=0;entryX=0;entryY=0.5;entryDx=0;entryDy=0;" parent="1" source="bIfid9KBODgOwhYmWyW7-23" target="bIfid9KBODgOwhYmWyW7-18" edge="1"><mxGeometry relative="1" as="geometry"/></mxCell><mxCell id="bIfid9KBODgOwhYmWyW7-52" value="yes" style="edgeLabel;html=1;align=center;verticalAlign=middle;resizable=0;points=[];" parent="bIfid9KBODgOwhYmWyW7-25" vertex="1" connectable="0"><mxGeometry x="-0.7842" y="-1" relative="1" as="geometry"><mxPoint as="offset"/></mxGeometry></mxCell><mxCell id="bIfid9KBODgOwhYmWyW7-54" style="edgeStyle=orthogonalEdgeStyle;rounded=0;orthogonalLoop=1;jettySize=auto;html=1;exitX=0.5;exitY=1;exitDx=0;exitDy=0;" parent="1" source="bIfid9KBODgOwhYmWyW7-23" target="bIfid9KBODgOwhYmWyW7-28" edge="1"><mxGeometry relative="1" as="geometry"><Array as="points"><mxPoint x="1050" y="450"/></Array></mxGeometry></mxCell><mxCell id="bIfid9KBODgOwhYmWyW7-55" value="no" style="edgeLabel;html=1;align=center;verticalAlign=middle;resizable=0;points=[];" parent="bIfid9KBODgOwhYmWyW7-54" vertex="1" connectable="0"><mxGeometry x="-0.822" y="1" relative="1" as="geometry"><mxPoint as="offset"/></mxGeometry></mxCell><mxCell id="bIfid9KBODgOwhYmWyW7-56" style="edgeStyle=orthogonalEdgeStyle;rounded=0;orthogonalLoop=1;jettySize=auto;html=1;exitX=0.5;exitY=1;exitDx=0;exitDy=0;entryX=1;entryY=0.5;entryDx=0;entryDy=0;" parent="1" source="bIfid9KBODgOwhYmWyW7-23" target="bIfid9KBODgOwhYmWyW7-36" edge="1"><mxGeometry relative="1" as="geometry"/></mxCell><mxCell id="bIfid9KBODgOwhYmWyW7-23" value="is Premium user?" style="rhombus;whiteSpace=wrap;html=1;" parent="1" vertex="1"><mxGeometry x="1010" y="120" width="80" height="80" as="geometry"/></mxCell><mxCell id="bIfid9KBODgOwhYmWyW7-26" value="Free User" style="swimlane;fontStyle=0;childLayout=stackLayout;horizontal=1;startSize=30;horizontalStack=0;resizeParent=1;resizeParentMax=0;resizeLast=0;collapsible=1;marginBottom=0;whiteSpace=wrap;html=1;" parent="1" vertex="1"><mxGeometry x="1190" y="370" width="160" height="120" as="geometry"/></mxCell><mxCell id="bIfid9KBODgOwhYmWyW7-42" value="Create only one dashboard" style="text;strokeColor=none;fillColor=none;align=left;verticalAlign=middle;spacingLeft=4;spacingRight=4;overflow=hidden;points=[[0,0.5],[1,0.5]];portConstraint=eastwest;rotatable=0;whiteSpace=wrap;html=1;" parent="bIfid9KBODgOwhYmWyW7-26" vertex="1"><mxGeometry y="30" width="160" height="30" as="geometry"/></mxCell><mxCell id="bIfid9KBODgOwhYmWyW7-28" value="Create only one dashboard" style="text;strokeColor=none;fillColor=none;align=left;verticalAlign=middle;spacingLeft=4;spacingRight=4;overflow=hidden;points=[[0,0.5],[1,0.5]];portConstraint=eastwest;rotatable=0;whiteSpace=wrap;html=1;" parent="bIfid9KBODgOwhYmWyW7-26" vertex="1"><mxGeometry y="60" width="160" height="30" as="geometry"/></mxCell><mxCell id="bIfid9KBODgOwhYmWyW7-29" value="Register until three topics to dashboard" style="text;strokeColor=none;fillColor=none;align=left;verticalAlign=middle;spacingLeft=4;spacingRight=4;overflow=hidden;points=[[0,0.5],[1,0.5]];portConstraint=eastwest;rotatable=0;whiteSpace=wrap;html=1;" parent="bIfid9KBODgOwhYmWyW7-26" vertex="1"><mxGeometry y="90" width="160" height="30" as="geometry"/></mxCell><mxCell id="bIfid9KBODgOwhYmWyW7-57" style="edgeStyle=orthogonalEdgeStyle;rounded=0;orthogonalLoop=1;jettySize=auto;html=1;entryX=0;entryY=0.5;entryDx=0;entryDy=0;exitX=0;exitY=0.5;exitDx=0;exitDy=0;" parent="1" source="bIfid9KBODgOwhYmWyW7-36" target="bIfid9KBODgOwhYmWyW7-6" edge="1"><mxGeometry relative="1" as="geometry"><Array as="points"><mxPoint x="-70" y="450"/><mxPoint x="-70" y="220"/></Array><mxPoint x="590" y="450" as="sourcePoint"/></mxGeometry></mxCell><mxCell id="bIfid9KBODgOwhYmWyW7-36" value="Show pop up for pay premium" style="rounded=0;whiteSpace=wrap;html=1;" parent="1" vertex="1"><mxGeometry x="620" y="420" width="120" height="60" as="geometry"/></mxCell><mxCell id="bIfid9KBODgOwhYmWyW7-45" style="edgeStyle=orthogonalEdgeStyle;rounded=0;orthogonalLoop=1;jettySize=auto;html=1;exitX=1;exitY=0.5;exitDx=0;exitDy=0;" parent="1" source="bIfid9KBODgOwhYmWyW7-43" target="bIfid9KBODgOwhYmWyW7-3" edge="1"><mxGeometry relative="1" as="geometry"/></mxCell><mxCell id="bIfid9KBODgOwhYmWyW7-48" value="yes" style="edgeLabel;html=1;align=center;verticalAlign=middle;resizable=0;points=[];" parent="bIfid9KBODgOwhYmWyW7-45" vertex="1" connectable="0"><mxGeometry x="-0.6181" y="-1" relative="1" as="geometry"><mxPoint as="offset"/></mxGeometry></mxCell><mxCell id="bIfid9KBODgOwhYmWyW7-46" style="edgeStyle=orthogonalEdgeStyle;rounded=0;orthogonalLoop=1;jettySize=auto;html=1;exitX=0.5;exitY=1;exitDx=0;exitDy=0;entryX=0.5;entryY=1;entryDx=0;entryDy=0;" parent="1" source="bIfid9KBODgOwhYmWyW7-43" target="bIfid9KBODgOwhYmWyW7-16" edge="1"><mxGeometry relative="1" as="geometry"><Array as="points"><mxPoint x="225" y="370"/><mxPoint x="860" y="370"/></Array></mxGeometry></mxCell><mxCell id="bIfid9KBODgOwhYmWyW7-49" value="no" style="edgeLabel;html=1;align=center;verticalAlign=middle;resizable=0;points=[];" parent="bIfid9KBODgOwhYmWyW7-46" vertex="1" connectable="0"><mxGeometry x="-0.9601" relative="1" as="geometry"><mxPoint as="offset"/></mxGeometry></mxCell><mxCell id="bIfid9KBODgOwhYmWyW7-43" value="there's not company created?" style="rhombus;whiteSpace=wrap;html=1;" parent="1" vertex="1"><mxGeometry x="180" y="175" width="90" height="90" as="geometry"/></mxCell></root></mxGraphModel></diagram></mxfile>